<svg viewBox="0 0 32 32" aria-hidden="true" xmlns="http://www.w3.org/2000/svg"><circle cx="16" cy="16" r="16" fill="#A3A3A3" fill-opacity="0.2"></circle><path fill-rule="evenodd" clip-rule="evenodd" d="M5 4a4 4 0 014-4h14a4 4 0 014 4v10h-2V4a2 2 0 00-2-2h-1.382a1 1 0 00-.894.553l-.448.894a1 1 0 01-.894.553h-6.764a1 1 0 01-.894-.553l-.448-.894A1 1 0 0010.382 2H9a2 2 0 00-2 2v24a2 2 0 002 2h5v2H9a4 4 0 01-4-4V4z" fill="#737373"></path><path fill-rule="evenodd" clip-rule="evenodd" d="M24 32a8 8 0 100-16 8 8 0 000 16zm1-8.414V19h-2v5.414l4 4L28.414 27 25 23.586z" fill="#171717"></path></svg>