<svg viewBox="0 0 32 32" fill="none" aria-hidden="true" xmlns="http://www.w3.org/2000/svg"><path fill-rule="evenodd" clip-rule="evenodd" d="M9 0a4 4 0 00-4 4v24a4 4 0 004 4h14a4 4 0 004-4V4a4 4 0 00-4-4H9zm0 2a2 2 0 00-2 2v24a2 2 0 002 2h14a2 2 0 002-2V4a2 2 0 00-2-2h-1.382a1 1 0 00-.894.553l-.448.894a1 1 0 01-.894.553h-6.764a1 1 0 01-.894-.553l-.448-.894A1 1 0 0010.382 2H9z" fill="#737373"></path><circle cx="11" cy="14" r="2" fill="#171717"></circle><circle cx="11" cy="20" r="2" fill="#171717"></circle><circle cx="11" cy="26" r="2" fill="#171717"></circle><path d="M16 14h6M16 20h6M16 26h6" stroke="#737373" stroke-width="2" stroke-linecap="square"></path><circle cx="16" cy="16" r="16" fill="#A3A3A3" fill-opacity="0.2"></circle></svg>